<svg xmlns="http://www.w3.org/2000/svg" width="512" height="512" viewBox="0 0 512 512">
  <defs>
    <linearGradient id="honeyGrad" x1="0%" y1="0%" x2="100%" y2="100%">
      <stop offset="0%" style="stop-color:#fcd483"/>
      <stop offset="100%" style="stop-color:#f7a42d"/>
    </linearGradient>
  </defs>
  <!-- Full background for maskable (no rounded corners) -->
  <rect width="512" height="512" fill="#662604"/>
  <!-- Honeycomb pattern (simplified hexagons) - safe zone aware -->
  <g fill="url(#honeyGrad)" opacity="0.12">
    <polygon points="256,80 300,115 300,185 256,220 212,185 212,115"/>
    <polygon points="168,150 212,185 212,255 168,290 124,255 124,185"/>
    <polygon points="344,150 388,185 388,255 344,290 300,255 300,185"/>
    <polygon points="168,290 212,325 212,395 168,430 124,395 124,325"/>
    <polygon points="344,290 388,325 388,395 344,430 300,395 300,325"/>
  </g>
  <!-- Content in safe zone (center 80% = 410px, offset 51px from edges) -->
  <!-- Bee body - smaller for safe zone -->
  <ellipse cx="256" cy="270" rx="75" ry="60" fill="#f7a42d"/>
  <!-- Bee stripes -->
  <rect x="200" y="245" width="112" height="17" rx="4" fill="#662604"/>
  <rect x="207" y="280" width="98" height="17" rx="4" fill="#662604"/>
  <!-- Bee head -->
  <circle cx="340" cy="250" r="38" fill="#662604"/>
  <!-- Bee eye -->
  <circle cx="354" cy="241" r="10" fill="#fbf9e7"/>
  <!-- Bee antennae -->
  <path d="M360 218 Q382 196 394 208" stroke="#662604" stroke-width="6" fill="none"/>
  <path d="M367 228 Q389 210 404 224" stroke="#662604" stroke-width="6" fill="none"/>
  <!-- Bee wings -->
  <ellipse cx="232" cy="210" rx="42" ry="29" fill="#fbf9e7" opacity="0.8"/>
  <ellipse cx="216" cy="232" rx="34" ry="21" fill="#fbf9e7" opacity="0.6"/>
  <!-- Bee stinger -->
  <polygon points="178,270 155,270 170,288" fill="#662604"/>
  <!-- Shield/protection symbol -->
  <path d="M256 375 L210 340 L210 308 Q210 285 256 274 Q302 285 302 308 L302 340 Z"
        fill="none" stroke="#f7a42d" stroke-width="9" opacity="0.9"/>
</svg>
