<svg xmlns="http://www.w3.org/2000/svg" width="512" height="512" viewBox="0 0 512 512">
  <defs>
    <linearGradient id="honeyGrad" x1="0%" y1="0%" x2="100%" y2="100%">
      <stop offset="0%" style="stop-color:#fcd483"/>
      <stop offset="100%" style="stop-color:#f7a42d"/>
    </linearGradient>
  </defs>
  <!-- Background circle -->
  <circle cx="256" cy="256" r="256" fill="#662604"/>
  <!-- Honeycomb pattern (simplified hexagons) -->
  <g fill="url(#honeyGrad)" opacity="0.15">
    <polygon points="256,53 309,93 309,173 256,213 203,173 203,93"/>
    <polygon points="149,133 203,173 203,253 149,293 96,253 96,173"/>
    <polygon points="363,133 416,173 416,253 363,293 309,253 309,173"/>
    <polygon points="149,293 203,333 203,413 149,453 96,413 96,333"/>
    <polygon points="363,293 416,333 416,413 363,453 309,413 309,333"/>
  </g>
  <!-- Bee body -->
  <ellipse cx="256" cy="267" rx="93" ry="75" fill="#f7a42d"/>
  <!-- Bee stripes -->
  <rect x="192" y="235" width="128" height="21" rx="5" fill="#662604"/>
  <rect x="200" y="277" width="112" height="21" rx="5" fill="#662604"/>
  <!-- Bee head -->
  <circle cx="360" cy="240" r="48" fill="#662604"/>
  <!-- Bee eye -->
  <circle cx="378" cy="229" r="13" fill="#fbf9e7"/>
  <!-- Bee antennae -->
  <path d="M387 200 Q413 173 427 187" stroke="#662604" stroke-width="8" fill="none"/>
  <path d="M395 213 Q421 192 440 208" stroke="#662604" stroke-width="8" fill="none"/>
  <!-- Bee wings -->
  <ellipse cx="227" cy="192" rx="53" ry="37" fill="#fbf9e7" opacity="0.8"/>
  <ellipse cx="208" cy="219" rx="43" ry="27" fill="#fbf9e7" opacity="0.6"/>
  <!-- Bee stinger -->
  <polygon points="155,267 128,267 147,288" fill="#662604"/>
  <!-- Shield/protection overlay symbol -->
  <path d="M256 387 L200 347 L200 307 Q200 280 256 267 Q312 280 312 307 L312 347 Z"
        fill="none" stroke="#f7a42d" stroke-width="11" opacity="0.9"/>
</svg>
